<svg version="1.2" xmlns="http://www.w3.org/2000/svg" viewBox="0 0 1200 800" width="1200" height="800"><style>.a{fill:#fff}</style><path fill-rule="evenodd" class="a" d="m1200 0v800h-1200v-800z"/><path  d="m566.4 456.8v-79.4h1.4l57.2 79.4h18v-116.6h-20v79.2h-1.4l-57.2-79.2h-18v116.6zm133.2 1.8c26.4 0 42.6-17.2 42.6-46 0-28.6-16.2-46-42.6-46-26.2 0-42.6 17.4-42.6 46 0.2 28.8 16.2 46 42.6 46zm0-16.8c-14 0-22-10.6-22-29.2 0-18.4 8-29.2 22-29.2 14 0 22 10.8 22 29.2 0 18.6-8 29.2-22 29.2zm60.8-95v22.2h-14v16h14v48.2c0 17.2 8 24 28.4 24 3.8 0 7.6-0.4 10.6-1v-15.6c-2.4 0.2-4 0.4-6.8 0.4-8.4 0-12.2-3.8-12.2-12.6v-43.4h19v-16h-19v-22.2zm51 110h20v-88.4h-20zm10-103c6.6 0 12-5.4 12-12 0-6.8-5.4-12.2-12-12.2-6.6 0-12 5.4-12 12.2 0 6.6 5.4 12 12 12zm64.8 104.8c26.4 0 42.6-17.2 42.6-46 0-28.6-16.2-46-42.6-46-26.2 0-42.6 17.4-42.6 46 0 28.8 16 46 42.6 46zm0-16.8c-14 0-22-10.6-22-29.2 0-18.4 8-29.2 22-29.2 13.8 0 22 10.8 22 29.2-0.2 18.6-8.2 29.2-22 29.2zm54.4 15h20v-51.4c0-13 7.6-21.2 19.4-21.2 12.2 0 17.8 6.8 17.8 20.2v52.4h20v-57.2c0-21.2-10.8-33-30.4-33-13.2 0-22 6-26.2 16h-1.4v-14.2h-19.4c0.2 0 0.2 88.4 0.2 88.4z"/><path fill-rule="evenodd" d="m208.4 264.4l167-12.2c20.4-1.8 25.8-0.6 38.6 8.8l53.2 37.4c8.8 6.4 11.8 8.2 11.8 15.2v205.4c0 12.8-4.6 20.4-21 21.6l-193.8 11.8c-12.4 0.6-18.2-1.2-24.6-9.4l-39.4-51c-7-9.4-10-16.4-10-24.6v-182.6c0-10.6 4.8-19.2 18.2-20.4zm41.6 78.4v174.4c0 9.4 4.6 12.8 15.2 12.2l182.2-10.6c10.6-0.6 11.8-7 11.8-14.6v-173.2c0-7.6-3-11.8-9.4-11.2l-190.4 11.2c-7 0.6-9.4 4.2-9.4 11.8zm179.8 9.4c1.2 5.2 0 10.6-5.2 11.2l-8.8 1.8v128.8c-7.6 4-14.6 6.4-20.6 6.4-9.4 0-11.8-3-18.8-11.8l-57.4-90.2v87.2l18.2 4c0 0 0 10.6-14.6 10.6l-40.4 2.4c-1.2-2.4 0-8.2 4-9.4l10.6-3v-115.2l-14.6-1.2c-1.2-5.2 1.8-12.8 10-13.4l43.4-3 59.8 91.2v-80.6l-15.2-1.8c-1.2-6.4 3.6-11.2 9.4-11.8zm-189.8-48c9.4 7.6 12.8 7 30.4 5.8l165.8-10c3.6 0 0.6-3.6-0.6-4l-27.6-19.8c-5.2-4-12.4-8.8-25.8-7.6l-160.4 11.8c-5.8 0.6-7 3.6-4.6 5.8z"/></svg>